<svg width="20" height="20" viewBox="0 0 20 20" fill="none" xmlns="http://www.w3.org/2000/svg">
<path fill-rule="evenodd" clip-rule="evenodd" d="M12.2425 0.525846C11.4997 0.233246 10.6924 0.0732422 9.85107 0.0732422C6.53236 0.0732422 3.74171 2.56301 3.36473 5.86024L3.11699 8.0271C3.10763 8.109 3.10335 8.14635 3.09879 8.18301C2.96844 9.23028 2.61922 10.2384 2.07379 11.1419C2.0547 11.1735 2.03496 11.2055 1.99165 11.2757L1.38103 12.2647L1.36498 12.2907L1.36496 12.2907C1.09208 12.7327 0.864761 13.1009 0.717793 13.4064C0.569461 13.7147 0.452608 14.0563 0.519122 14.4202C0.580618 14.7566 0.751679 15.0633 1.00565 15.2923C1.28035 15.5401 1.6324 15.6201 1.97268 15.6559C2.30983 15.6913 2.74253 15.6913 3.26197 15.6913H3.26198H3.29252H16.4096H16.4402H16.4402C16.9596 15.6913 17.3923 15.6913 17.7295 15.6559C18.0697 15.6201 18.4218 15.5401 18.6965 15.2923C18.9505 15.0633 19.1215 14.7566 19.183 14.4202C19.2495 14.0563 19.1327 13.7147 18.9843 13.4064C18.8374 13.1009 18.61 12.7327 18.3372 12.2907L18.3371 12.2907L18.3211 12.2647L17.7105 11.2757C17.6672 11.2055 17.6474 11.1735 17.6283 11.1419C17.1928 10.4205 16.8824 9.63232 16.7086 8.81079C16.5607 8.82357 16.4113 8.83008 16.2608 8.83008C16.0378 8.83008 15.8173 8.81579 15.6003 8.788C15.7866 9.81681 16.1592 10.8044 16.7009 11.7018C16.7231 11.7385 16.7457 11.7752 16.7867 11.8415L16.7872 11.8424L16.7887 11.8448L17.3993 12.8338C17.6924 13.3085 17.8888 13.6281 18.0081 13.876C18.1289 14.1271 18.1205 14.2081 18.1173 14.2254C18.0988 14.3267 18.0473 14.4189 17.9709 14.4879C17.9579 14.4996 17.8933 14.5494 17.6162 14.5785C17.3426 14.6072 16.9675 14.608 16.4096 14.608H3.29252C2.73465 14.608 2.35954 14.6072 2.0859 14.5785C1.80879 14.5494 1.74426 14.4996 1.73123 14.4879C1.65479 14.4189 1.60331 14.3267 1.5848 14.2254C1.58165 14.2081 1.57323 14.1271 1.69403 13.876C1.81331 13.6281 2.00976 13.3085 2.30283 12.8338L2.91345 11.8448L2.91509 11.8421L2.91512 11.8421C2.95629 11.7754 2.979 11.7386 3.00123 11.7018C3.6252 10.6682 4.02471 9.51489 4.17383 8.31681C4.17913 8.27419 4.18403 8.23129 4.19291 8.15365L4.19293 8.15352L4.19331 8.15016L4.44105 5.9833C4.75548 3.2332 7.08305 1.15658 9.85107 1.15658C10.4744 1.15658 11.0753 1.26187 11.636 1.45643C11.8042 1.12273 12.0082 0.811146 12.2425 0.525846ZM14.7382 2.27271C14.4598 2.54753 14.2595 2.89738 14.1725 3.28821C14.6671 3.93241 15.022 4.69263 15.1893 5.52618C15.5042 5.70397 15.8703 5.80577 16.2608 5.80577C16.2842 5.80577 16.3076 5.80541 16.3308 5.80468C16.1642 4.44926 15.5893 3.23266 14.7382 2.27271Z" fill="#333333"/>
<path d="M6.75417 15.8391C6.93676 16.8324 7.33912 17.7103 7.89883 18.3363C8.45854 18.9624 9.14433 19.3018 9.84983 19.3018C10.5553 19.3018 11.2411 18.9624 11.8008 18.3363C12.3605 17.7103 12.7629 16.8325 12.9455 15.8391" stroke="#333333" stroke-linecap="round"/>
<circle cx="15.9199" cy="3.75" r="3.75" fill="#FF0000"/>
</svg>
