<svg width="20" height="20" viewBox="0 0 20 20" fill="none" xmlns="http://www.w3.org/2000/svg">
<path fill-rule="evenodd" clip-rule="evenodd" d="M12.2432 0.52516C11.5003 0.232375 10.6927 0.0722656 9.85107 0.0722656C6.53236 0.0722656 3.74171 2.56204 3.36473 5.85927L3.11699 8.02612C3.10763 8.10803 3.10335 8.14537 3.09879 8.18203C2.96844 9.22931 2.61922 10.2374 2.07379 11.1409C2.0547 11.1726 2.03496 11.2045 1.99165 11.2747L1.38103 12.2637L1.36498 12.2897L1.36496 12.2898C1.09208 12.7317 0.864761 13.0999 0.717793 13.4054C0.569461 13.7137 0.452608 14.0553 0.519122 14.4192C0.580618 14.7556 0.751679 15.0623 1.00565 15.2914C1.28035 15.5391 1.6324 15.6192 1.97268 15.6549C2.30983 15.6903 2.74253 15.6903 3.26197 15.6903H3.26198H3.29252H16.4096H16.4402H16.4402C16.9596 15.6903 17.3923 15.6903 17.7295 15.6549C18.0697 15.6192 18.4218 15.5391 18.6965 15.2914C18.9505 15.0623 19.1215 14.7556 19.183 14.4192C19.2495 14.0553 19.1327 13.7137 18.9843 13.4054C18.8374 13.0999 18.61 12.7317 18.3372 12.2897L18.3371 12.2897L18.3211 12.2637L17.7105 11.2747C17.6672 11.2045 17.6474 11.1726 17.6283 11.1409C17.1928 10.4195 16.8824 9.63139 16.7086 8.80989C16.561 8.82262 16.4119 8.8291 16.2617 8.8291C16.0384 8.8291 15.8176 8.81477 15.6002 8.78689C15.7866 9.81575 16.1592 10.8034 16.7009 11.7008C16.7231 11.7375 16.7457 11.7742 16.7867 11.8406L16.7872 11.8414L16.7887 11.8438L17.3993 12.8328C17.6924 13.3075 17.8888 13.6271 18.0081 13.875C18.1289 14.1261 18.1205 14.2072 18.1173 14.2244C18.0988 14.3257 18.0473 14.418 17.9709 14.4869C17.9579 14.4987 17.8933 14.5484 17.6162 14.5775C17.3426 14.6063 16.9675 14.607 16.4096 14.607H3.29252C2.73465 14.607 2.35954 14.6063 2.0859 14.5775C1.80879 14.5484 1.74426 14.4987 1.73123 14.4869C1.65479 14.418 1.60331 14.3257 1.5848 14.2244C1.58165 14.2072 1.57323 14.1261 1.69403 13.875C1.81331 13.6271 2.00976 13.3075 2.30283 12.8328L2.91345 11.8438L2.91509 11.8412L2.91512 11.8411C2.95629 11.7744 2.979 11.7376 3.00123 11.7008C3.6252 10.6672 4.02471 9.51391 4.17383 8.31583C4.17913 8.27321 4.18403 8.23031 4.19291 8.15267L4.19293 8.15254L4.19331 8.14918L4.44105 5.98232C4.75548 3.23222 7.08305 1.1556 9.85107 1.1556C10.4747 1.1556 11.0759 1.261 11.6368 1.45574C11.805 1.12204 12.009 0.810463 12.2432 0.52516ZM14.7386 2.27225C14.4602 2.54723 14.2601 2.89724 14.1733 3.28822C14.6674 3.93204 15.0219 4.6917 15.1891 5.52458C15.5044 5.70275 15.8708 5.8048 16.2617 5.8048C16.2848 5.8048 16.3079 5.80444 16.3308 5.80373C16.1643 4.44854 15.5896 3.23212 14.7386 2.27225Z" fill="black"/>
<path d="M6.75417 15.8381C6.93676 16.8315 7.33912 17.7093 7.89883 18.3354C8.45854 18.9614 9.14433 19.3008 9.84983 19.3008C10.5553 19.3008 11.2411 18.9614 11.8008 18.3354C12.3605 17.7093 12.7629 16.8315 12.9455 15.8381" stroke="black" stroke-width="1.08333" stroke-linecap="round"/>
<circle cx="15.9219" cy="3.75" r="3.75" fill="#6AFF00"/>
</svg>
