<svg width="57" height="16" viewBox="0 0 57 16" fill="none" xmlns="http://www.w3.org/2000/svg">
<rect x="0.75" y="0.25" width="55.5" height="15.5" rx="3.75" fill="#F7F7F7"/>
<rect x="0.75" y="0.25" width="55.5" height="15.5" rx="3.75" stroke="#E9E9E9" stroke-width="0.5"/>
<path d="M10.9989 6.26841L10.8338 6.01578H11.0867L10.9105 5.83947L11.0992 6.01578H11.3563H11.0977L11.2895 6.19895L10.9989 6.26841ZM11.0992 6.01578H11.0961L11.1922 5.77999L11.0992 6.01578Z" fill="#333333"/>
<path d="M10.3896 5.66262L10.2395 5.46315L10.3143 5.23L10.4993 5.41631L10.6185 5.19052L10.5098 5.41472L10.7548 5.37684L10.5056 5.42316L10.3896 5.66262Z" fill="#333333"/>
<path d="M11.267 13H5.68628C5.37179 12.9996 5.07027 12.8736 4.84789 12.6496C4.62551 12.4256 4.50041 12.122 4.5 11.8053V5.24472C4.50028 4.92795 4.62535 4.62422 4.84776 4.40022C5.07017 4.17623 5.37175 4.05027 5.68628 4.05H5.80647V4.57631H5.68628C5.5103 4.57645 5.34155 4.64691 5.21712 4.77224C5.09269 4.89756 5.02272 5.06749 5.02259 5.24472V11.8026C5.02272 11.9798 5.09269 12.1498 5.21712 12.2751C5.34155 12.4004 5.5103 12.4709 5.68628 12.4711H11.267C11.4429 12.4708 11.6116 12.4003 11.736 12.2749C11.8604 12.1497 11.9304 11.9798 11.9307 11.8026V11.6816H12.4533V11.8026C12.4535 12.1198 12.3287 12.4242 12.1063 12.6487C11.8838 12.8732 11.5819 12.9996 11.267 13Z" fill="#333333"/>
<path d="M10.3896 5.66262L10.2395 5.46315L10.3143 5.23L10.4993 5.41631L10.6185 5.19052L10.5098 5.41472L10.7548 5.37684L10.5056 5.42316L10.3896 5.66262Z" fill="#333333"/>
<path d="M10.9989 6.26841L10.8338 6.01578H11.0867L10.9105 5.83947L11.0992 6.01578H11.3563H11.0977L11.2895 6.19895L10.9989 6.26841ZM11.0992 6.01578H11.0961L11.1922 5.77999L11.0992 6.01578Z" fill="#333333"/>
<path d="M12.3116 11.9474H6.73302C6.41811 11.9469 6.11621 11.8208 5.89354 11.5965C5.67087 11.3723 5.54559 11.0682 5.54517 10.7511V4.19684C5.54545 3.87959 5.67066 3.57541 5.89335 3.35103C6.11604 3.12666 6.41802 3.00042 6.73302 3H10.0676C10.2237 2.99963 10.3782 3.03042 10.5224 3.09059C10.6665 3.15076 10.7974 3.2391 10.9074 3.35052L13.1519 5.61369C13.2626 5.7245 13.3503 5.85631 13.41 6.00149C13.4698 6.14666 13.5004 6.30233 13.5 6.45947V10.7537C13.4988 11.0705 13.3732 11.3739 13.1505 11.5976C12.9278 11.8213 12.6262 11.9471 12.3116 11.9474ZM6.73302 3.52632C6.55658 3.5266 6.38745 3.59734 6.26274 3.72305C6.13803 3.84875 6.0679 4.01914 6.06776 4.19684V10.7511C6.0679 10.9287 6.13804 11.0991 6.26277 11.2246C6.3875 11.3503 6.55662 11.4209 6.73302 11.4211H12.3116C12.4881 11.4209 12.6572 11.3503 12.7821 11.2247C12.9069 11.0991 12.9771 10.9287 12.9774 10.7511V6.45527C12.9768 6.27769 12.9068 6.10748 12.7825 5.98157L10.538 3.71842C10.413 3.5932 10.244 3.52267 10.0676 3.52211L6.73302 3.52632Z" fill="#333333"/>
<path d="M13.1551 6.33367H11.3783C11.0627 6.33326 10.7601 6.2068 10.5369 5.98205C10.3138 5.75729 10.1882 5.45259 10.1878 5.13474V3.34999H10.7104V5.13263C10.7105 5.31098 10.781 5.48198 10.9062 5.60809C11.0314 5.73421 11.2012 5.80511 11.3783 5.80526H13.1551V6.33367Z" fill="#333333"/>
<path d="M10.9054 3.34889L10.5359 3.72106L12.7841 5.98529L13.1536 5.61312L10.9054 3.34889Z" fill="#333333"/>
<path d="M9.52207 6.80157H7.66426C7.59496 6.80157 7.52848 6.77385 7.47948 6.72449C7.43048 6.67514 7.40296 6.60821 7.40296 6.53841C7.40296 6.46862 7.43048 6.40169 7.47948 6.35234C7.52848 6.30299 7.59496 6.27526 7.66426 6.27526H9.52207C9.59136 6.27526 9.65784 6.30299 9.7068 6.35234C9.75582 6.40169 9.78336 6.46862 9.78336 6.53841C9.78336 6.60821 9.75582 6.67514 9.7068 6.72449C9.65784 6.77385 9.59136 6.80157 9.52207 6.80157Z" fill="#333333"/>
<path d="M11.3804 9.60842H7.66426C7.59496 9.60842 7.52848 9.58068 7.47948 9.53132C7.43048 9.482 7.40296 9.41505 7.40296 9.34526C7.40296 9.27547 7.43048 9.20853 7.47948 9.15916C7.52848 9.10984 7.59496 9.0821 7.66426 9.0821H11.3804C11.4497 9.0821 11.5161 9.10984 11.5651 9.15916C11.6141 9.20853 11.6417 9.27547 11.6417 9.34526C11.6417 9.41505 11.6141 9.482 11.5651 9.53132C11.5161 9.58068 11.4497 9.60842 11.3804 9.60842Z" fill="#333333"/>
<path d="M19.62 4.63H20.34V5.01C20.34 6.63 18.62 7.82 16.8 8.13L16.48 7.47C18.07 7.24 19.62 6.2 19.62 5.01V4.63ZM19.83 4.63H20.54V5.01C20.54 6.2 22.1 7.24 23.68 7.47L23.37 8.13C21.54 7.82 19.83 6.63 19.83 5.01V4.63ZM19.65 9.33H20.47V12.78H19.65V9.33ZM16 8.89H24.17V9.57H16V8.89ZM16.76 4.3H23.38V4.97H16.76V4.3ZM25.1992 10.92H33.3892V11.61H25.1992V10.92ZM28.8392 8.73H29.6592V11.15H28.8392V8.73ZM28.8192 4.34H29.5392V5.04C29.5392 6.97 27.6892 8.46 25.8692 8.84L25.5192 8.15C27.1092 7.86 28.8192 6.53 28.8192 5.04V4.34ZM28.9692 4.34H29.6892V5.04C29.6892 6.54 31.4092 7.86 32.9992 8.15L32.6392 8.84C30.8192 8.46 28.9692 6.97 28.9692 5.04V4.34ZM34.3884 8.4H42.5584V9.08H34.3884V8.4ZM38.0684 7.05H38.8884V8.61H38.0684V7.05ZM35.2984 9.96H41.5484V12.78H40.7184V10.64H35.2984V9.96ZM35.4784 3.95H36.2984V4.97H40.6684V3.95H41.4984V7.33H35.4784V3.95ZM36.2984 5.62V6.67H40.6684V5.62H36.2984ZM45.8077 4.52H46.4877V6.14C46.4877 8.14 45.4077 10.09 43.9777 10.85L43.4677 10.19C44.7777 9.53 45.8077 7.79 45.8077 6.14V4.52ZM45.9577 4.52H46.6277V6.14C46.6277 7.73 47.6377 9.38 48.9177 10.02L48.4077 10.68C47.0077 9.93 45.9577 8.08 45.9577 6.14V4.52ZM49.7077 3.74H50.5477V12.78H49.7077V3.74ZM50.3477 7.4H52.0277V8.1H50.3477V7.4Z" fill="#666666"/>
</svg>
